<?xml version="1.0" encoding="UTF-8" standalone="no"?>
<!-- Created with Inkscape (http://www.inkscape.org/) -->

<svg
   width="550"
   height="550"
   viewBox="0 0 515.62501 515.62501"
   id="svg2"
   version="1.1"
   xmlns="http://www.w3.org/2000/svg"
   xmlns:svg="http://www.w3.org/2000/svg"
   xmlns:rdf="http://www.w3.org/1999/02/22-rdf-syntax-ns#"
   xmlns:cc="http://creativecommons.org/ns#"
   xmlns:dc="http://purl.org/dc/elements/1.1/">
  <defs
     id="defs4" />
  <metadata
     id="metadata7">
    <rdf:RDF>
      <cc:Work
         rdf:about="">
        <dc:format>image/svg+xml</dc:format>
        <dc:type
           rdf:resource="http://purl.org/dc/dcmitype/StillImage" />
      </cc:Work>
    </rdf:RDF>
  </metadata>
  <g
     id="layer1"
     style="display:inline"
     transform="translate(-148.57143,-450.63058)" />
  <g
     id="layer2"
     style="display:inline"
     transform="translate(-148.57143,-450.63058)">
    <ellipse
       style="display:none;opacity:1;fill:#a7a7a7;fill-opacity:1;stroke:none;stroke-width:1;stroke-miterlimit:4;stroke-dasharray:none;stroke-dashoffset:0;stroke-opacity:1"
       id="ellipse4304"
       cx="384.28571"
       cy="703.79077"
       rx="235.71428"
       ry="191.94852" />
  </g>
  <g
     id="layer3"
     transform="translate(-148.57143,-450.63058)"
     style="display:inline">
    <path
       id="path3336"
       style="display:inline;fill:none;fill-opacity:1;stroke:#000000;stroke-width:5;stroke-miterlimit:4;stroke-dasharray:none;stroke-dashoffset:0;stroke-opacity:1"
       d="m 345.16557,355.10742 38.59029,0 v 111.4375 C 470.9026,432.49833 526.36682,360.78467 526.42773,282.07422 526.40515,232.25651 504.07871,184.15452 463.63086,146.7793 L 439.13281,12.035156 v 0 L 350.84766,86.919922 C 326.31696,80.580357 300.73639,77.345404 275,77.328125 c -27.84716,0.148383 -55.47059,4.063 -81.74219,11.583984 L 103.89453,13.113281 78.087891,155.05664 c -35.22485,36.12899 -54.434537,80.88621 -54.515625,127.01758 0.01393,77.87125 54.272608,148.99488 139.994144,183.50781 V 355.10742 h 33.44922"
       transform="matrix(0.93750002,0,0,0.93750002,148.57143,450.63058)" />
    <path
       id="path3344"
       style="display:inline;fill:#000000;fill-opacity:1;stroke:none;stroke-width:1.06667;stroke-miterlimit:4;stroke-dasharray:none;stroke-dashoffset:0;stroke-opacity:1"
       d="M 164.03125 177.1582 A 28.484682 28.484682 0 0 0 135.54688 205.64258 A 28.484682 28.484682 0 0 0 164.03125 234.12695 A 28.484682 28.484682 0 0 0 192.51562 205.64258 A 28.484682 28.484682 0 0 0 164.03125 177.1582 z M 171.22852 199.71289 A 14.737075 14.737075 0 0 1 185.96484 214.44922 A 14.737075 14.737075 0 0 1 171.22852 229.18555 A 14.737075 14.737075 0 0 1 156.49023 214.44922 A 14.737075 14.737075 0 0 1 171.22852 199.71289 z "
       transform="matrix(0.93750002,0,0,0.93750002,148.57143,450.63058)" />
    <path
       id="circle3346"
       style="display:inline;fill:#000000;fill-opacity:1;stroke:none;stroke-width:1.06667;stroke-miterlimit:4;stroke-dasharray:none;stroke-dashoffset:0;stroke-opacity:1"
       d="M 378.34961 174.64453 A 28.484682 28.484682 0 0 0 349.86523 203.12891 A 28.484682 28.484682 0 0 0 378.34961 231.61523 A 28.484682 28.484682 0 0 0 406.83398 203.12891 A 28.484682 28.484682 0 0 0 378.34961 174.64453 z M 386.68555 196.74023 A 14.737075 14.737075 0 0 1 401.42188 211.47656 A 14.737075 14.737075 0 0 1 386.68555 226.21484 A 14.737075 14.737075 0 0 1 371.94727 211.47656 A 14.737075 14.737075 0 0 1 386.68555 196.74023 z "
       transform="matrix(0.93750002,0,0,0.93750002,148.57143,450.63058)" />
    <path
       id="ellipse4314"
       style="display:inline;fill:#000000;fill-opacity:1;stroke:none;stroke-width:1.06667;stroke-miterlimit:4;stroke-dasharray:none;stroke-dashoffset:0;stroke-opacity:1"
       d="M 383.75586 377.19336 L 383.75586 394.69922 L 437.55469 438.48438 A 251.42856 204.74508 0 0 0 471.51562 410.0918 L 383.75586 377.19336 z "
       transform="matrix(0.93750002,0,0,0.93750002,148.57143,450.63058)" />
    <path
       style="display:inline;fill:#000000;fill-opacity:1;stroke:none;stroke-width:1;stroke-miterlimit:4;stroke-dasharray:none;stroke-dashoffset:0;stroke-opacity:1"
       d="M 501.1138,762.04225 612.32279,808.636 a 235.71428,191.94852 0 0 0 19.54882,-37.1289 z"
       id="ellipse4302" />
    <path
       id="ellipse4300"
       style="display:inline;fill:#000000;fill-opacity:1;stroke:none;stroke-width:1.06667;stroke-miterlimit:4;stroke-dasharray:none;stroke-dashoffset:0;stroke-opacity:1"
       d="M 187.08984 345.94531 L 163.67773 355.10742 L 176.9668 355.10742 L 187.08984 345.94531 z M 163.56641 355.15039 L 64.3125 393.99219 C 73.907892 405.93261 85.009895 417.02358 97.4375 427.08398 L 163.56641 367.23438 L 163.56641 355.15039 z "
       transform="matrix(0.93750002,0,0,0.93750002,148.57143,450.63058)" />
    <path
       style="display:inline;fill:#000000;fill-opacity:1;stroke:none;stroke-width:1;stroke-miterlimit:4;stroke-dasharray:none;stroke-dashoffset:0;stroke-opacity:1"
       d="m 172.737,741.22844 a 235.71428,191.94852 0 0 0 12.10351,39.92578 l 118.60938,-34.07617 z"
       id="ellipse4298" />
    <path
       style="display:inline;fill:#000000;fill-opacity:1;stroke:none;stroke-width:1;stroke-miterlimit:4;stroke-dasharray:none;stroke-dashoffset:0;stroke-opacity:1"
       d="m 375.30917,524.76204 a 235.71428,191.94852 0 0 0 -40.17578,7.31055 l 36.26367,97.66992 z"
       id="ellipse4264" />
    <path
       id="path4268"
       d="m 437.72268,524.67276 a 235.71428,191.94852 0 0 1 40.17578,7.31055 l -36.26367,97.66992 z"
       style="display:inline;fill:#000000;fill-opacity:1;stroke:none;stroke-width:1;stroke-miterlimit:4;stroke-dasharray:none;stroke-dashoffset:0;stroke-opacity:1" />
    <path
       id="rect4152"
       style="display:inline;fill:none;fill-opacity:1;stroke:#000000;stroke-width:4.6875;stroke-miterlimit:4;stroke-dasharray:none;stroke-dashoffset:0;stroke-opacity:1"
       d="m 472.03694,783.5432 36.30605,1e-5 V 954.9718 H 301.9144 v -171.42859 0 h 31.06948" />
    <path
       style="display:inline;opacity:1;fill:none;fill-opacity:1;stroke:#000000;stroke-width:4.08229;stroke-miterlimit:4;stroke-dasharray:none;stroke-dashoffset:0;stroke-opacity:1"
       id="path3348"
       d="m 403.25529,777.07001 a 35.44099,37.195393 0 0 1 -20.40012,33.67963 35.44099,37.195393 0 0 1 -37.71541,-5.0929 35.44099,37.195393 0 0 1 -11.61212,-38.00241" />
    <path
       id="path4150"
       style="display:inline;opacity:1;fill:none;fill-opacity:1;stroke:#000000;stroke-width:4.08229;stroke-miterlimit:4;stroke-dasharray:none;stroke-dashoffset:0;stroke-opacity:1"
       transform="scale(-1,1)"
       d="m -402.62317,776.51904 a 35.44125,37.195393 0 0 1 -21.21133,34.06562 35.44125,37.195393 0 0 1 -38.24433,-6.71042 35.44125,37.195393 0 0 1 -9.49944,-39.45419" />
    <path
       style="display:inline;opacity:1;fill:#000000;fill-opacity:1;stroke:none;stroke-width:1;stroke-miterlimit:4;stroke-dasharray:none;stroke-dashoffset:0;stroke-opacity:1"
       id="path3342"
       transform="matrix(1,0,0,0.83845799,22.098229,136.08556)"
       d="m 351.94528,722.53974 57.76447,0 -28.88223,50.0255 z" />
    <circle
       style="display:inline;fill:#000000;fill-opacity:1;stroke:none;stroke-width:5;stroke-miterlimit:4;stroke-dasharray:none;stroke-dashoffset:0;stroke-opacity:1"
       id="path4179"
       cx="318.11356"
       cy="834.04828"
       r="3.7880721" />
    <circle
       style="display:inline;fill:#000000;fill-opacity:1;stroke:none;stroke-width:5;stroke-miterlimit:4;stroke-dasharray:none;stroke-dashoffset:0;stroke-opacity:1"
       id="path4179-3"
       cx="318.11356"
       cy="866.08679"
       r="3.7880721" />
    <circle
       style="display:inline;fill:#000000;fill-opacity:1;stroke:none;stroke-width:5;stroke-miterlimit:4;stroke-dasharray:none;stroke-dashoffset:0;stroke-opacity:1"
       id="path4179-6"
       cx="318.11356"
       cy="898.12524"
       r="3.7880721" />
    <circle
       style="display:inline;fill:#000000;fill-opacity:1;stroke:none;stroke-width:5;stroke-miterlimit:4;stroke-dasharray:none;stroke-dashoffset:0;stroke-opacity:1"
       id="path4179-7"
       cx="318.11356"
       cy="930.16376"
       r="3.7880721" />
    <path
       style="display:inline;fill:none;fill-rule:evenodd;stroke:#000000;stroke-width:2;stroke-linecap:butt;stroke-linejoin:miter;stroke-miterlimit:4;stroke-dasharray:none;stroke-opacity:1"
       d="m 331.66966,836.14601 c 29.28571,-9.28571 34.28571,0 34.28571,0 v 0 l 25.71429,-11.78571 c 0,0 5,21.78571 30.35714,16.42857 25.35714,-5.35714 -6.42857,-16.07143 13.92857,-11.42857 20.35715,4.64286 54.28572,5 54.28572,5"
       id="path4212" />
    <path
       style="display:inline;fill:none;fill-rule:evenodd;stroke:#000000;stroke-width:2;stroke-linecap:butt;stroke-linejoin:miter;stroke-miterlimit:4;stroke-dasharray:none;stroke-opacity:1"
       d="m 334.5268,862.21744 c 0,0 15.71429,11.42857 29.28572,8.92857 13.57142,-2.5 -1.78572,-9.64285 17.85714,-10.71428 19.64286,-1.07143 21.78571,17.14286 42.14286,13.57143 20.35714,-3.57143 48.57143,-6.07143 48.57143,-6.07143 0,0 11.78571,-13.57143 17.14285,-6.42857 5.35715,7.14285 5.35715,7.14285 5.35715,7.14285 v 0"
       id="path4216" />
    <path
       style="display:inline;fill:none;fill-rule:evenodd;stroke:#000000;stroke-width:2;stroke-linecap:butt;stroke-linejoin:miter;stroke-miterlimit:4;stroke-dasharray:none;stroke-opacity:1"
       d="m 493.5238,896.7111 c -29.28571,9.28571 -34.28571,0 -34.28571,0 v 0 l -25.71429,11.78571 c 0,0 -5,-21.78571 -30.35714,-16.42857 -25.35714,5.35714 6.42857,16.07143 -13.92857,11.42857 -20.35715,-4.64286 -54.28572,-5 -54.28572,-5"
       id="path4212-5" />
    <path
       style="display:inline;fill:none;fill-rule:evenodd;stroke:#000000;stroke-width:2;stroke-linecap:butt;stroke-linejoin:miter;stroke-miterlimit:4;stroke-dasharray:none;stroke-opacity:1"
       d="m 495.37558,933.37445 c 0,0 -15.71429,-11.42857 -29.28572,-8.92857 -13.57142,2.5 1.78572,9.64285 -17.85714,10.71428 -19.64286,1.07143 -21.78571,-17.14286 -42.14286,-13.57143 -20.35714,3.57143 -48.57143,6.07143 -48.57143,6.07143 0,0 -11.78571,13.57143 -17.14285,6.42857 -5.35715,-7.14285 -5.35715,-7.14285 -5.35715,-7.14285 v 0"
       id="path4216-3" />
  </g>
</svg>
